{"title":"Bloodwork 2011 VODRIP XviD Feel-Free","uid":7159609,"size":1043651620,"categoryP":"video","categoryS":"movies","magnet":"?xt=urn:btih:4c4112d9b4260adfd3c221e1e64fb06db8e02a30&amp;dn=Bloodwork+2011+VODRIP+XviD+Feel-Free&amp;tr=udp%3A%2F%2Ftracker.openbittorrent.com%3A80&amp;tr=udp%3A%2F%2Fopen.demonii.com%3A1337&amp;tr=udp%3A%2F%2Ftracker.coppersurfer.tk%3A6969&amp;tr=udp%3A%2F%2Fexodus.desync.com%3A6969","seeders":0,"leechers":1,"uploader":".BONE.","files":8,"time":1333569061,"description":"Genre:Thriller\nLanguage:English\nIMDb:http://www.imdb.com/title/tt1562567/\nSource:HK INC Thanks!\nEncoder:Tony\n\nFormat : AVI\nFormat/Info : Audio Video Interleave\nFile size : 994 MiB\nDuration : 1h 39mn\nOverall bit rate : 1 398 Kbps\n\nVideo\nID : 0\nFormat : MPEG-4 Visual\nFormat profile : Advanced Simple@L5\nFormat settings, BVOP : 1\nFormat settings, QPel : No\nFormat settings, GMC : No warppoints\nFormat settings, Matrix : Default (H.263)\nCodec ID : XVID\nCodec ID/Hint : XviD\nDuration : 1h 39mn\nBit rate : 1 164 Kbps\nWidth : 640 pixels\nHeight : 368 pixels\nDisplay aspect ratio : 16:9\nFrame rate : 23.976 fps\nColor space : YUV\nChroma subsampling : 4:2:0\nBit depth : 8 bits\nScan type : Progressive\nCompression mode : Lossy\nBits/(Pixel*Frame) : 0.206\nStream size : 828 MiB (83%)\nWriting library : XviD 1.2.1 (UTC 2008-12-04)\n\nAudio\nID : 1\nFormat : AC-3\nFormat/Info : Audio Coding 3\nMode extension : CM (complete main)\nCodec ID : 2000\nDuration : 1h 39mn\nBit rate mode : Constant\nBit rate : 224 Kbps\nChannel(s) : 2 channels\nChannel positions : Front: L R\nSampling rate : 48.0 KHz\nBit depth : 16 bits\nCompression mode : Lossy\nStream size : 159 MiB (16%)\nAlignment : Aligned on interleaves\nInterleave, duration : 42 ms (1.00 video frame)\nInterleave, preload duration : 512 ms\n\n\nPlot:\nA couple of college students decide to sign up for pharmaceutical testing of a new allergy drug to make some extra cash for their spring break trip..","torrent":{"xt":"urn:btih:4c4112d9b4260adfd3c221e1e64fb06db8e02a30","amp;dn":"Bloodwork+2011+VODRIP+XviD+Feel-Free","amp;tr":["udp%3A%2F%2Ftracker.openbittorrent.com%3A80","udp%3A%2F%2Fopen.demonii.com%3A1337","udp%3A%2F%2Ftracker.coppersurfer.tk%3A6969","udp%3A%2F%2Fexodus.desync.com%3A6969"],"infoHash":"4c4112d9b4260adfd3c221e1e64fb06db8e02a30","infoHashBuffer":{"type":"Buffer","data":[76,65,18,217,180,38,10,223,211,194,33,225,230,79,176,109,184,224,42,48]},"announce":[],"urlList":[]}}